<svg xmlns="http://www.w3.org/2000/svg" data-name="Layer 1" viewBox="0 0 100 125" x="0px" y="0px"><title>Artboard 18</title><path d="M20.1,24.52A6.13,6.13,0,1,1,14,18.39,6.13,6.13,0,0,1,20.1,24.52ZM14,39.91A6.13,6.13,0,1,0,20.1,46,6.13,6.13,0,0,0,14,39.91Zm0,21.52a6.13,6.13,0,1,0,6.13,6.13A6.13,6.13,0,0,0,14,61.42Zm16.78-33H54.85l1.72-7.83H30.76a3.91,3.91,0,1,0,0,7.83ZM51.83,42.12H30.76a3.91,3.91,0,1,0,0,7.83H50.11Zm-25,25.43a3.92,3.92,0,0,0,3.91,3.91h14.6l1.72-7.83H30.76A3.92,3.92,0,0,0,26.85,67.55ZM52,79.23a8.2,8.2,0,0,1-.15-4.08l15.1-68.5a7.18,7.18,0,0,1,8.56-5.47l11,2.42A7.2,7.2,0,0,1,92,12.16l-15.1,68.5A8.19,8.19,0,0,1,75,84.3L63.13,97.81a3.51,3.51,0,0,1-3.39,1.11h0a3.51,3.51,0,0,1-2.61-2.43ZM57.76,78l2.39,8,4.61,1,5.88-6.67a2.31,2.31,0,0,0,.52-1l.27-1.23a52,52,0,0,1-13.59-3l-.3,1.34A2.25,2.25,0,0,0,57.76,78Z"/><text x="0" y="115" fill="#000000" font-size="5px" font-weight="bold" font-family="'Helvetica Neue', Helvetica, Arial-Unicode, Arial, Sans-serif">Created by Gregor Cresnar</text><text x="0" y="120" fill="#000000" font-size="5px" font-weight="bold" font-family="'Helvetica Neue', Helvetica, Arial-Unicode, Arial, Sans-serif">from the Noun Project</text></svg>